<?xml version="1.0" encoding="utf-8"?>
<!-- Generator: Adobe Illustrator 17.0.0, SVG Export Plug-In . SVG Version: 6.00 Build 0)  -->
<!DOCTYPE svg PUBLIC "-//W3C//DTD SVG 1.1//EN" "http://www.w3.org/Graphics/SVG/1.1/DTD/svg11.dtd">
<svg version="1.1" id="Слой_1" xmlns="http://www.w3.org/2000/svg" xmlns:xlink="http://www.w3.org/1999/xlink" x="0px" y="0px"
	 width="200px" height="55px" viewBox="0 0 200 55" enable-background="new 0 0 200 55" xml:space="preserve">
<g>
	<g>
		<g>
			<defs>
				<rect id="SVGID_1_" x="-54.75" y="-49" width="306.866" height="257"/>
			</defs>
			<clipPath id="SVGID_2_">
				<use xlink:href="#SVGID_1_"  overflow="visible"/>
			</clipPath>
			<g clip-path="url(#SVGID_2_)">
				<g>
					<defs>
						<rect id="SVGID_3_" x="-54.75" y="-49" width="306.866" height="257"/>
					</defs>
					<defs>
						<rect id="SVGID_4_" x="-54.75" y="-49" width="306.866" height="257"/>
					</defs>
					<defs>
						<rect id="SVGID_5_" x="-54.75" y="-49" width="306.866" height="257"/>
					</defs>
					<defs>
						<rect id="SVGID_6_" x="-54.75" y="-49" width="306.866" height="257"/>
					</defs>
					<defs>
						<rect id="SVGID_7_" x="-54.75" y="-49" width="306.866" height="257"/>
					</defs>
					<defs>
						<rect id="SVGID_8_" x="-54.75" y="-49" width="306.866" height="257"/>
					</defs>
					<defs>
						<rect id="SVGID_9_" x="-54.75" y="-49" width="306.866" height="257"/>
					</defs>
					<defs>
						<rect id="SVGID_10_" x="-54.75" y="-49" width="306.866" height="257"/>
					</defs>
					<defs>
						<rect id="SVGID_11_" x="-54.75" y="-49" width="306.866" height="257"/>
					</defs>
					<defs>
						<rect id="SVGID_12_" x="-54.75" y="-49" width="306.866" height="257"/>
					</defs>
					<defs>
						<rect id="SVGID_13_" x="-54.75" y="-49" width="306.866" height="257"/>
					</defs>
					<defs>
						<rect id="SVGID_14_" x="-54.75" y="-49" width="306.866" height="257"/>
					</defs>
					<defs>
						<rect id="SVGID_15_" x="-54.75" y="-49" width="306.866" height="257"/>
					</defs>
					<defs>
						<rect id="SVGID_16_" x="-54.75" y="-49" width="306.866" height="257"/>
					</defs>
					<defs>
						<rect id="SVGID_17_" x="-54.75" y="-49" width="306.866" height="257"/>
					</defs>
					<defs>
						<rect id="SVGID_18_" x="-54.75" y="-49" width="306.866" height="257"/>
					</defs>
					<defs>
						<rect id="SVGID_19_" x="-54.75" y="-49" width="306.866" height="257"/>
					</defs>
					<defs>
						<rect id="SVGID_20_" x="-54.75" y="-49" width="306.866" height="257"/>
					</defs>
					<defs>
						<rect id="SVGID_21_" x="-54.75" y="-49" width="306.866" height="257"/>
					</defs>
					<defs>
						<rect id="SVGID_22_" x="-54.75" y="-49" width="306.866" height="257"/>
					</defs>
					<defs>
						<rect id="SVGID_23_" x="-54.75" y="-49" width="306.866" height="257"/>
					</defs>
					<defs>
						<rect id="SVGID_24_" x="-54.75" y="-49" width="306.866" height="257"/>
					</defs>
					<defs>
						<rect id="SVGID_25_" x="-54.75" y="-49" width="306.866" height="257"/>
					</defs>
					<defs>
						<rect id="SVGID_26_" x="-54.75" y="-49" width="306.866" height="257"/>
					</defs>
					<defs>
						<rect id="SVGID_27_" x="-54.75" y="-49" width="306.866" height="257"/>
					</defs>
					<defs>
						<rect id="SVGID_28_" x="-54.75" y="-49" width="306.866" height="257"/>
					</defs>
					<defs>
						<rect id="SVGID_29_" x="-54.75" y="-49" width="306.866" height="257"/>
					</defs>
					<defs>
						<rect id="SVGID_30_" x="-54.75" y="-49" width="306.866" height="257"/>
					</defs>
					<defs>
						<rect id="SVGID_31_" x="-54.75" y="-49" width="306.866" height="257"/>
					</defs>
					<defs>
						<rect id="SVGID_32_" x="-54.75" y="-49" width="306.866" height="257"/>
					</defs>
					<defs>
						<rect id="SVGID_33_" x="-54.75" y="-49" width="306.866" height="257"/>
					</defs>
					<defs>
						<rect id="SVGID_34_" x="-54.75" y="-49" width="306.866" height="257"/>
					</defs>
					<defs>
						<rect id="SVGID_35_" x="-54.75" y="-49" width="306.866" height="257"/>
					</defs>
					<defs>
						<rect id="SVGID_36_" x="-54.75" y="-49" width="306.866" height="257"/>
					</defs>
					<defs>
						<rect id="SVGID_37_" x="-54.75" y="-49" width="306.866" height="257"/>
					</defs>
					<defs>
						<rect id="SVGID_38_" x="-54.75" y="-49" width="306.866" height="257"/>
					</defs>
					<defs>
						<rect id="SVGID_39_" x="-54.75" y="-49" width="306.866" height="257"/>
					</defs>
					<defs>
						<rect id="SVGID_40_" x="-54.75" y="-49" width="306.866" height="257"/>
					</defs>
					<defs>
						<rect id="SVGID_41_" x="-54.75" y="-49" width="306.866" height="257"/>
					</defs>
					<defs>
						<rect id="SVGID_42_" x="-54.75" y="-49" width="306.866" height="257"/>
					</defs>
					<defs>
						<rect id="SVGID_43_" x="-54.75" y="-49" width="306.866" height="257"/>
					</defs>
					<defs>
						<rect id="SVGID_44_" x="-54.75" y="-49" width="306.866" height="257"/>
					</defs>
					<defs>
						<rect id="SVGID_45_" x="-54.75" y="-49" width="306.866" height="257"/>
					</defs>
					<defs>
						<rect id="SVGID_46_" x="-54.75" y="-49" width="306.866" height="257"/>
					</defs>
					<defs>
						<rect id="SVGID_47_" x="-54.75" y="-49" width="306.866" height="257"/>
					</defs>
					<defs>
						<rect id="SVGID_48_" x="-54.75" y="-49" width="306.866" height="257"/>
					</defs>
					<defs>
						<rect id="SVGID_49_" x="-54.75" y="-49" width="306.866" height="257"/>
					</defs>
					<defs>
						<rect id="SVGID_50_" x="-54.75" y="-49" width="306.866" height="257"/>
					</defs>
					<defs>
						<rect id="SVGID_51_" x="-54.75" y="-49" width="306.866" height="257"/>
					</defs>
					<defs>
						<rect id="SVGID_52_" x="-54.75" y="-49" width="306.866" height="257"/>
					</defs>
					<defs>
						<rect id="SVGID_53_" x="-54.75" y="-49" width="306.866" height="257"/>
					</defs>
					<defs>
						<rect id="SVGID_54_" x="-54.75" y="-49" width="306.866" height="257"/>
					</defs>
					<defs>
						<rect id="SVGID_55_" x="-54.75" y="-49" width="306.866" height="257"/>
					</defs>
					<defs>
						<rect id="SVGID_56_" x="-54.75" y="-49" width="306.866" height="257"/>
					</defs>
					<defs>
						<rect id="SVGID_57_" x="-54.75" y="-49" width="306.866" height="257"/>
					</defs>
					<defs>
						<rect id="SVGID_58_" x="-54.75" y="-49" width="306.866" height="257"/>
					</defs>
					<defs>
						<rect id="SVGID_59_" x="-54.75" y="-49" width="306.866" height="257"/>
					</defs>
					<defs>
						<rect id="SVGID_60_" x="-54.75" y="-49" width="306.866" height="257"/>
					</defs>
					<defs>
						<rect id="SVGID_61_" x="-54.75" y="-49" width="306.866" height="257"/>
					</defs>
					<defs>
						<rect id="SVGID_62_" x="-54.75" y="-49" width="306.866" height="257"/>
					</defs>
					<defs>
						<rect id="SVGID_63_" x="-54.75" y="-49" width="306.866" height="257"/>
					</defs>
					<defs>
						<rect id="SVGID_64_" x="-54.75" y="-49" width="306.866" height="257"/>
					</defs>
					<defs>
						<rect id="SVGID_65_" x="-54.75" y="-49" width="306.866" height="257"/>
					</defs>
					<defs>
						<rect id="SVGID_66_" x="-54.75" y="-49" width="306.866" height="257"/>
					</defs>
					<defs>
						<rect id="SVGID_67_" x="-54.75" y="-49" width="306.866" height="257"/>
					</defs>
					<defs>
						<rect id="SVGID_68_" x="-54.75" y="-49" width="306.866" height="257"/>
					</defs>
					<defs>
						<rect id="SVGID_69_" x="-54.75" y="-49" width="306.866" height="257"/>
					</defs>
					<defs>
						<rect id="SVGID_70_" x="-54.75" y="-49" width="306.866" height="257"/>
					</defs>
					<defs>
						<rect id="SVGID_71_" x="-54.75" y="-49" width="306.866" height="257"/>
					</defs>
					<defs>
						<rect id="SVGID_72_" x="-54.75" y="-49" width="306.866" height="257"/>
					</defs>
					<defs>
						<rect id="SVGID_73_" x="-54.75" y="-49" width="306.866" height="257"/>
					</defs>
					<defs>
						<rect id="SVGID_74_" x="-54.75" y="-49" width="306.866" height="257"/>
					</defs>
					<defs>
						<rect id="SVGID_75_" x="-54.75" y="-49" width="306.866" height="257"/>
					</defs>
					<defs>
						<rect id="SVGID_76_" x="-54.75" y="-49" width="306.866" height="257"/>
					</defs>
					<defs>
						<rect id="SVGID_77_" x="-54.75" y="-49" width="306.866" height="257"/>
					</defs>
					<defs>
						<rect id="SVGID_78_" x="-54.75" y="-49" width="306.866" height="257"/>
					</defs>
					<defs>
						<rect id="SVGID_79_" x="-54.75" y="-49" width="306.866" height="257"/>
					</defs>
					<defs>
						<rect id="SVGID_80_" x="-54.75" y="-49" width="306.866" height="257"/>
					</defs>
					<defs>
						<rect id="SVGID_81_" x="-54.75" y="-49" width="306.866" height="257"/>
					</defs>
					<defs>
						<rect id="SVGID_82_" x="-54.75" y="-49" width="306.866" height="257"/>
					</defs>
					<defs>
						<rect id="SVGID_83_" x="-54.75" y="-49" width="306.866" height="257"/>
					</defs>
					<defs>
						<rect id="SVGID_84_" x="-54.75" y="-49" width="306.866" height="257"/>
					</defs>
					<defs>
						<rect id="SVGID_85_" x="-54.75" y="-49" width="306.866" height="257"/>
					</defs>
					<defs>
						<rect id="SVGID_86_" x="-54.75" y="-49" width="306.866" height="257"/>
					</defs>
					<defs>
						<rect id="SVGID_87_" x="-54.75" y="-49" width="306.866" height="257"/>
					</defs>
					<defs>
						<rect id="SVGID_88_" x="-54.75" y="-49" width="306.866" height="257"/>
					</defs>
					<defs>
						<rect id="SVGID_89_" x="-54.75" y="-49" width="306.866" height="257"/>
					</defs>
					<defs>
						<rect id="SVGID_90_" x="-54.75" y="-49" width="306.866" height="257"/>
					</defs>
					<defs>
						<rect id="SVGID_91_" x="-54.75" y="-49" width="306.866" height="257"/>
					</defs>
					<defs>
						<rect id="SVGID_92_" x="-54.75" y="-49" width="306.866" height="257"/>
					</defs>
					<defs>
						<rect id="SVGID_93_" x="-54.75" y="-49" width="306.866" height="257"/>
					</defs>
					<defs>
						<rect id="SVGID_94_" x="-54.75" y="-49" width="306.866" height="257"/>
					</defs>
					<defs>
						<rect id="SVGID_95_" x="-54.75" y="-49" width="306.866" height="257"/>
					</defs>
					<defs>
						<rect id="SVGID_96_" x="-54.75" y="-49" width="306.866" height="257"/>
					</defs>
					<defs>
						<rect id="SVGID_97_" x="-54.75" y="-49" width="306.866" height="257"/>
					</defs>
					<defs>
						<rect id="SVGID_98_" x="-54.75" y="-49" width="306.866" height="257"/>
					</defs>
					<clipPath id="SVGID_99_">
						<use xlink:href="#SVGID_3_"  overflow="visible"/>
					</clipPath>
					<clipPath id="SVGID_100_" clip-path="url(#SVGID_99_)">
						<use xlink:href="#SVGID_4_"  overflow="visible"/>
					</clipPath>
					<clipPath id="SVGID_101_" clip-path="url(#SVGID_100_)">
						<use xlink:href="#SVGID_5_"  overflow="visible"/>
					</clipPath>
					<clipPath id="SVGID_102_" clip-path="url(#SVGID_101_)">
						<use xlink:href="#SVGID_6_"  overflow="visible"/>
					</clipPath>
					<clipPath id="SVGID_103_" clip-path="url(#SVGID_102_)">
						<use xlink:href="#SVGID_7_"  overflow="visible"/>
					</clipPath>
					<clipPath id="SVGID_104_" clip-path="url(#SVGID_103_)">
						<use xlink:href="#SVGID_8_"  overflow="visible"/>
					</clipPath>
					<clipPath id="SVGID_105_" clip-path="url(#SVGID_104_)">
						<use xlink:href="#SVGID_9_"  overflow="visible"/>
					</clipPath>
					<clipPath id="SVGID_106_" clip-path="url(#SVGID_105_)">
						<use xlink:href="#SVGID_10_"  overflow="visible"/>
					</clipPath>
					<clipPath id="SVGID_107_" clip-path="url(#SVGID_106_)">
						<use xlink:href="#SVGID_11_"  overflow="visible"/>
					</clipPath>
					<clipPath id="SVGID_108_" clip-path="url(#SVGID_107_)">
						<use xlink:href="#SVGID_12_"  overflow="visible"/>
					</clipPath>
					<clipPath id="SVGID_109_" clip-path="url(#SVGID_108_)">
						<use xlink:href="#SVGID_13_"  overflow="visible"/>
					</clipPath>
					<clipPath id="SVGID_110_" clip-path="url(#SVGID_109_)">
						<use xlink:href="#SVGID_14_"  overflow="visible"/>
					</clipPath>
					<clipPath id="SVGID_111_" clip-path="url(#SVGID_110_)">
						<use xlink:href="#SVGID_15_"  overflow="visible"/>
					</clipPath>
					<clipPath id="SVGID_112_" clip-path="url(#SVGID_111_)">
						<use xlink:href="#SVGID_16_"  overflow="visible"/>
					</clipPath>
					<clipPath id="SVGID_113_" clip-path="url(#SVGID_112_)">
						<use xlink:href="#SVGID_17_"  overflow="visible"/>
					</clipPath>
					<clipPath id="SVGID_114_" clip-path="url(#SVGID_113_)">
						<use xlink:href="#SVGID_18_"  overflow="visible"/>
					</clipPath>
					<clipPath id="SVGID_115_" clip-path="url(#SVGID_114_)">
						<use xlink:href="#SVGID_19_"  overflow="visible"/>
					</clipPath>
					<clipPath id="SVGID_116_" clip-path="url(#SVGID_115_)">
						<use xlink:href="#SVGID_20_"  overflow="visible"/>
					</clipPath>
					<clipPath id="SVGID_117_" clip-path="url(#SVGID_116_)">
						<use xlink:href="#SVGID_21_"  overflow="visible"/>
					</clipPath>
					<clipPath id="SVGID_118_" clip-path="url(#SVGID_117_)">
						<use xlink:href="#SVGID_22_"  overflow="visible"/>
					</clipPath>
					<clipPath id="SVGID_119_" clip-path="url(#SVGID_118_)">
						<use xlink:href="#SVGID_23_"  overflow="visible"/>
					</clipPath>
					<clipPath id="SVGID_120_" clip-path="url(#SVGID_119_)">
						<use xlink:href="#SVGID_24_"  overflow="visible"/>
					</clipPath>
					<clipPath id="SVGID_121_" clip-path="url(#SVGID_120_)">
						<use xlink:href="#SVGID_25_"  overflow="visible"/>
					</clipPath>
					<clipPath id="SVGID_122_" clip-path="url(#SVGID_121_)">
						<use xlink:href="#SVGID_26_"  overflow="visible"/>
					</clipPath>
					<clipPath id="SVGID_123_" clip-path="url(#SVGID_122_)">
						<use xlink:href="#SVGID_27_"  overflow="visible"/>
					</clipPath>
					<clipPath id="SVGID_124_" clip-path="url(#SVGID_123_)">
						<use xlink:href="#SVGID_28_"  overflow="visible"/>
					</clipPath>
					<clipPath id="SVGID_125_" clip-path="url(#SVGID_124_)">
						<use xlink:href="#SVGID_29_"  overflow="visible"/>
					</clipPath>
					<clipPath id="SVGID_126_" clip-path="url(#SVGID_125_)">
						<use xlink:href="#SVGID_30_"  overflow="visible"/>
					</clipPath>
					<clipPath id="SVGID_127_" clip-path="url(#SVGID_126_)">
						<use xlink:href="#SVGID_31_"  overflow="visible"/>
					</clipPath>
					<clipPath id="SVGID_128_" clip-path="url(#SVGID_127_)">
						<use xlink:href="#SVGID_32_"  overflow="visible"/>
					</clipPath>
					<clipPath id="SVGID_129_" clip-path="url(#SVGID_128_)">
						<use xlink:href="#SVGID_33_"  overflow="visible"/>
					</clipPath>
					<clipPath id="SVGID_130_" clip-path="url(#SVGID_129_)">
						<use xlink:href="#SVGID_34_"  overflow="visible"/>
					</clipPath>
					<clipPath id="SVGID_131_" clip-path="url(#SVGID_130_)">
						<use xlink:href="#SVGID_35_"  overflow="visible"/>
					</clipPath>
					<clipPath id="SVGID_132_" clip-path="url(#SVGID_131_)">
						<use xlink:href="#SVGID_36_"  overflow="visible"/>
					</clipPath>
					<clipPath id="SVGID_133_" clip-path="url(#SVGID_132_)">
						<use xlink:href="#SVGID_37_"  overflow="visible"/>
					</clipPath>
					<clipPath id="SVGID_134_" clip-path="url(#SVGID_133_)">
						<use xlink:href="#SVGID_38_"  overflow="visible"/>
					</clipPath>
					<clipPath id="SVGID_135_" clip-path="url(#SVGID_134_)">
						<use xlink:href="#SVGID_39_"  overflow="visible"/>
					</clipPath>
					<clipPath id="SVGID_136_" clip-path="url(#SVGID_135_)">
						<use xlink:href="#SVGID_40_"  overflow="visible"/>
					</clipPath>
					<clipPath id="SVGID_137_" clip-path="url(#SVGID_136_)">
						<use xlink:href="#SVGID_41_"  overflow="visible"/>
					</clipPath>
					<clipPath id="SVGID_138_" clip-path="url(#SVGID_137_)">
						<use xlink:href="#SVGID_42_"  overflow="visible"/>
					</clipPath>
					<clipPath id="SVGID_139_" clip-path="url(#SVGID_138_)">
						<use xlink:href="#SVGID_43_"  overflow="visible"/>
					</clipPath>
					<clipPath id="SVGID_140_" clip-path="url(#SVGID_139_)">
						<use xlink:href="#SVGID_44_"  overflow="visible"/>
					</clipPath>
					<clipPath id="SVGID_141_" clip-path="url(#SVGID_140_)">
						<use xlink:href="#SVGID_45_"  overflow="visible"/>
					</clipPath>
					<clipPath id="SVGID_142_" clip-path="url(#SVGID_141_)">
						<use xlink:href="#SVGID_46_"  overflow="visible"/>
					</clipPath>
					<clipPath id="SVGID_143_" clip-path="url(#SVGID_142_)">
						<use xlink:href="#SVGID_47_"  overflow="visible"/>
					</clipPath>
					<clipPath id="SVGID_144_" clip-path="url(#SVGID_143_)">
						<use xlink:href="#SVGID_48_"  overflow="visible"/>
					</clipPath>
					<clipPath id="SVGID_145_" clip-path="url(#SVGID_144_)">
						<use xlink:href="#SVGID_49_"  overflow="visible"/>
					</clipPath>
					<clipPath id="SVGID_146_" clip-path="url(#SVGID_145_)">
						<use xlink:href="#SVGID_50_"  overflow="visible"/>
					</clipPath>
					<clipPath id="SVGID_147_" clip-path="url(#SVGID_146_)">
						<use xlink:href="#SVGID_51_"  overflow="visible"/>
					</clipPath>
					<clipPath id="SVGID_148_" clip-path="url(#SVGID_147_)">
						<use xlink:href="#SVGID_52_"  overflow="visible"/>
					</clipPath>
					<clipPath id="SVGID_149_" clip-path="url(#SVGID_148_)">
						<use xlink:href="#SVGID_53_"  overflow="visible"/>
					</clipPath>
					<clipPath id="SVGID_150_" clip-path="url(#SVGID_149_)">
						<use xlink:href="#SVGID_54_"  overflow="visible"/>
					</clipPath>
					<clipPath id="SVGID_151_" clip-path="url(#SVGID_150_)">
						<use xlink:href="#SVGID_55_"  overflow="visible"/>
					</clipPath>
					<clipPath id="SVGID_152_" clip-path="url(#SVGID_151_)">
						<use xlink:href="#SVGID_56_"  overflow="visible"/>
					</clipPath>
					<clipPath id="SVGID_153_" clip-path="url(#SVGID_152_)">
						<use xlink:href="#SVGID_57_"  overflow="visible"/>
					</clipPath>
					<clipPath id="SVGID_154_" clip-path="url(#SVGID_153_)">
						<use xlink:href="#SVGID_58_"  overflow="visible"/>
					</clipPath>
					<clipPath id="SVGID_155_" clip-path="url(#SVGID_154_)">
						<use xlink:href="#SVGID_59_"  overflow="visible"/>
					</clipPath>
					<clipPath id="SVGID_156_" clip-path="url(#SVGID_155_)">
						<use xlink:href="#SVGID_60_"  overflow="visible"/>
					</clipPath>
					<clipPath id="SVGID_157_" clip-path="url(#SVGID_156_)">
						<use xlink:href="#SVGID_61_"  overflow="visible"/>
					</clipPath>
					<clipPath id="SVGID_158_" clip-path="url(#SVGID_157_)">
						<use xlink:href="#SVGID_62_"  overflow="visible"/>
					</clipPath>
					<clipPath id="SVGID_159_" clip-path="url(#SVGID_158_)">
						<use xlink:href="#SVGID_63_"  overflow="visible"/>
					</clipPath>
					<clipPath id="SVGID_160_" clip-path="url(#SVGID_159_)">
						<use xlink:href="#SVGID_64_"  overflow="visible"/>
					</clipPath>
					<clipPath id="SVGID_161_" clip-path="url(#SVGID_160_)">
						<use xlink:href="#SVGID_65_"  overflow="visible"/>
					</clipPath>
					<clipPath id="SVGID_162_" clip-path="url(#SVGID_161_)">
						<use xlink:href="#SVGID_66_"  overflow="visible"/>
					</clipPath>
					<clipPath id="SVGID_163_" clip-path="url(#SVGID_162_)">
						<use xlink:href="#SVGID_67_"  overflow="visible"/>
					</clipPath>
					<clipPath id="SVGID_164_" clip-path="url(#SVGID_163_)">
						<use xlink:href="#SVGID_68_"  overflow="visible"/>
					</clipPath>
					<clipPath id="SVGID_165_" clip-path="url(#SVGID_164_)">
						<use xlink:href="#SVGID_69_"  overflow="visible"/>
					</clipPath>
					<clipPath id="SVGID_166_" clip-path="url(#SVGID_165_)">
						<use xlink:href="#SVGID_70_"  overflow="visible"/>
					</clipPath>
					<clipPath id="SVGID_167_" clip-path="url(#SVGID_166_)">
						<use xlink:href="#SVGID_71_"  overflow="visible"/>
					</clipPath>
					<clipPath id="SVGID_168_" clip-path="url(#SVGID_167_)">
						<use xlink:href="#SVGID_72_"  overflow="visible"/>
					</clipPath>
					<clipPath id="SVGID_169_" clip-path="url(#SVGID_168_)">
						<use xlink:href="#SVGID_73_"  overflow="visible"/>
					</clipPath>
					<clipPath id="SVGID_170_" clip-path="url(#SVGID_169_)">
						<use xlink:href="#SVGID_74_"  overflow="visible"/>
					</clipPath>
					<clipPath id="SVGID_171_" clip-path="url(#SVGID_170_)">
						<use xlink:href="#SVGID_75_"  overflow="visible"/>
					</clipPath>
					<clipPath id="SVGID_172_" clip-path="url(#SVGID_171_)">
						<use xlink:href="#SVGID_76_"  overflow="visible"/>
					</clipPath>
					<clipPath id="SVGID_173_" clip-path="url(#SVGID_172_)">
						<use xlink:href="#SVGID_77_"  overflow="visible"/>
					</clipPath>
					<clipPath id="SVGID_174_" clip-path="url(#SVGID_173_)">
						<use xlink:href="#SVGID_78_"  overflow="visible"/>
					</clipPath>
					<clipPath id="SVGID_175_" clip-path="url(#SVGID_174_)">
						<use xlink:href="#SVGID_79_"  overflow="visible"/>
					</clipPath>
					<clipPath id="SVGID_176_" clip-path="url(#SVGID_175_)">
						<use xlink:href="#SVGID_80_"  overflow="visible"/>
					</clipPath>
					<clipPath id="SVGID_177_" clip-path="url(#SVGID_176_)">
						<use xlink:href="#SVGID_81_"  overflow="visible"/>
					</clipPath>
					<clipPath id="SVGID_178_" clip-path="url(#SVGID_177_)">
						<use xlink:href="#SVGID_82_"  overflow="visible"/>
					</clipPath>
					<clipPath id="SVGID_179_" clip-path="url(#SVGID_178_)">
						<use xlink:href="#SVGID_83_"  overflow="visible"/>
					</clipPath>
					<clipPath id="SVGID_180_" clip-path="url(#SVGID_179_)">
						<use xlink:href="#SVGID_84_"  overflow="visible"/>
					</clipPath>
					<clipPath id="SVGID_181_" clip-path="url(#SVGID_180_)">
						<use xlink:href="#SVGID_85_"  overflow="visible"/>
					</clipPath>
					<clipPath id="SVGID_182_" clip-path="url(#SVGID_181_)">
						<use xlink:href="#SVGID_86_"  overflow="visible"/>
					</clipPath>
					<clipPath id="SVGID_183_" clip-path="url(#SVGID_182_)">
						<use xlink:href="#SVGID_87_"  overflow="visible"/>
					</clipPath>
					<clipPath id="SVGID_184_" clip-path="url(#SVGID_183_)">
						<use xlink:href="#SVGID_88_"  overflow="visible"/>
					</clipPath>
					<clipPath id="SVGID_185_" clip-path="url(#SVGID_184_)">
						<use xlink:href="#SVGID_89_"  overflow="visible"/>
					</clipPath>
					<clipPath id="SVGID_186_" clip-path="url(#SVGID_185_)">
						<use xlink:href="#SVGID_90_"  overflow="visible"/>
					</clipPath>
					<clipPath id="SVGID_187_" clip-path="url(#SVGID_186_)">
						<use xlink:href="#SVGID_91_"  overflow="visible"/>
					</clipPath>
					<clipPath id="SVGID_188_" clip-path="url(#SVGID_187_)">
						<use xlink:href="#SVGID_92_"  overflow="visible"/>
					</clipPath>
					<clipPath id="SVGID_189_" clip-path="url(#SVGID_188_)">
						<use xlink:href="#SVGID_93_"  overflow="visible"/>
					</clipPath>
					<clipPath id="SVGID_190_" clip-path="url(#SVGID_189_)">
						<use xlink:href="#SVGID_94_"  overflow="visible"/>
					</clipPath>
					<clipPath id="SVGID_191_" clip-path="url(#SVGID_190_)">
						<use xlink:href="#SVGID_95_"  overflow="visible"/>
					</clipPath>
					<clipPath id="SVGID_192_" clip-path="url(#SVGID_191_)">
						<use xlink:href="#SVGID_96_"  overflow="visible"/>
					</clipPath>
					<clipPath id="SVGID_193_" clip-path="url(#SVGID_192_)">
						<use xlink:href="#SVGID_97_"  overflow="visible"/>
					</clipPath>
					<clipPath id="SVGID_194_" clip-path="url(#SVGID_193_)">
						<use xlink:href="#SVGID_98_"  overflow="visible"/>
					</clipPath>
					<path clip-path="url(#SVGID_194_)" fill="#FBBA00" d="M108.413,35.004c0-0.649,0-1.461,0.612-2.074
						c0.613-0.612,1.425-0.612,2.074-0.612h4.216c3.948,0,6.072,2.798,6.072,5.722s-2.124,5.722-6.072,5.722h-2.504v3.548
						c0,1-0.012,1.349-0.275,1.874c-0.312,0.624-1.049,1.075-1.924,1.075s-1.611-0.45-1.924-1.075
						c-0.262-0.525-0.275-0.875-0.275-1.874C108.413,47.31,108.413,35.004,108.413,35.004z M115.115,39.864
						c1.199,0,1.899-0.887,1.899-1.824s-0.699-1.824-1.899-1.824h-2.304v3.648C112.811,39.864,115.115,39.864,115.115,39.864z"/>
					<path clip-path="url(#SVGID_194_)" fill="#FBBA00" d="M77.713,9.996c1.274-1.275,2.786-1.949,4.91-1.949
						c2.174,0,3.386,0.362,4.485,1.349c1.349,1.212,1.687,2.524,1.687,3.298c0,0.775-0.213,1.262-0.613,1.662
						s-0.937,0.612-1.512,0.612c-0.487,0-0.875-0.125-1.174-0.337c-0.475-0.325-0.787-0.8-1.162-1.462
						c-0.499-0.887-1.024-1.224-1.811-1.224c-0.75,0-1.25,0.349-1.574,0.774c-0.512,0.674-0.675,1.449-0.675,4.373
						c0,2.923,0.162,3.698,0.675,4.372c0.325,0.425,0.824,0.775,1.574,0.775c0.787,0,1.312-0.338,1.811-1.224
						c0.375-0.662,0.687-1.137,1.162-1.462c0.3-0.213,0.687-0.338,1.174-0.338c0.575,0,1.112,0.212,1.512,0.612
						s0.613,0.887,0.613,1.662c0,0.774-0.338,2.086-1.687,3.298c-1.099,0.987-2.311,1.349-4.485,1.349
						c-2.124,0-3.636-0.675-4.91-1.949c-1.812-1.812-1.837-4.098-1.837-7.097C75.877,14.094,75.902,11.808,77.713,9.996"/>
					<path clip-path="url(#SVGID_194_)" fill="#FBBA00" d="M98.607,26.138c-2.174,0-3.686-0.675-4.96-1.949
						c-1.812-1.812-1.837-4.098-1.837-7.097c0-2.998,0.025-5.285,1.837-7.096c1.274-1.275,2.786-1.949,4.96-1.949
						c2.173,0,3.685,0.675,4.96,1.949c1.812,1.812,1.837,4.098,1.837,7.096s-0.025,5.285-1.837,7.097
						C102.293,25.463,100.781,26.138,98.607,26.138 M101.006,17.093c0-3.249-0.25-3.848-0.649-4.373
						c-0.325-0.425-0.95-0.774-1.749-0.774c-0.8,0-1.425,0.349-1.749,0.774c-0.4,0.525-0.65,1.124-0.65,4.373s0.25,3.823,0.65,4.348
						c0.325,0.425,0.949,0.799,1.749,0.799c0.799,0,1.424-0.375,1.749-0.799C100.756,20.916,101.006,20.341,101.006,17.093"/>
					<path clip-path="url(#SVGID_194_)" fill="#FBBA00" d="M108.413,10.883c0-0.65,0-1.462,0.612-2.074
						c0.612-0.612,1.425-0.612,2.074-0.612h7.445c0.9,0,1.237,0.025,1.674,0.237c0.55,0.263,0.949,0.937,0.949,1.712
						s-0.4,1.449-0.949,1.712c-0.437,0.213-0.774,0.237-1.674,0.237h-5.733v3.123h4.289c0.9,0,1.237,0.025,1.674,0.237
						c0.55,0.262,0.949,0.937,0.949,1.712c0,0.774-0.4,1.449-0.949,1.712c-0.437,0.212-0.775,0.237-1.674,0.237h-4.289v4.073
						c0,1-0.012,1.349-0.275,1.874c-0.312,0.624-1.049,1.074-1.924,1.074s-1.611-0.45-1.924-1.074
						c-0.262-0.525-0.275-0.875-0.275-1.874L108.413,10.883L108.413,10.883z"/>
					<path clip-path="url(#SVGID_194_)" fill="#FBBA00" d="M124.183,10.883c0-0.65,0-1.462,0.612-2.074
						c0.612-0.612,1.425-0.612,2.074-0.612h7.445c0.9,0,1.237,0.025,1.674,0.237c0.55,0.263,0.949,0.937,0.949,1.712
						s-0.4,1.449-0.949,1.712c-0.437,0.213-0.774,0.237-1.674,0.237h-5.733v3.123h4.289c0.9,0,1.237,0.025,1.674,0.237
						c0.55,0.262,0.949,0.937,0.949,1.712c0,0.774-0.4,1.449-0.949,1.712c-0.438,0.212-0.775,0.237-1.674,0.237h-4.289v4.073
						c0,1-0.013,1.349-0.275,1.874c-0.312,0.624-1.049,1.074-1.924,1.074s-1.611-0.45-1.924-1.074
						c-0.262-0.525-0.275-0.875-0.275-1.874C124.183,23.189,124.183,10.883,124.183,10.883z"/>
					<path clip-path="url(#SVGID_194_)" fill="#FBBA00" d="M142.638,25.988c-0.649,0-1.461,0-2.074-0.613
						c-0.613-0.611-0.613-1.424-0.613-2.074V10.883c0-0.65,0-1.461,0.613-2.074c0.612-0.612,1.425-0.612,2.074-0.612h7.445
						c0.9,0,1.237,0.025,1.674,0.237c0.55,0.263,0.949,0.937,0.949,1.712s-0.4,1.45-0.949,1.712
						c-0.437,0.212-0.774,0.237-1.674,0.237h-5.733v2.974h4.609c0.899,0,1.236,0.025,1.674,0.237
						c0.55,0.262,0.949,0.937,0.949,1.712s-0.4,1.45-0.949,1.712c-0.438,0.212-0.775,0.237-1.674,0.237h-4.609v3.124h5.733
						c0.9,0,1.237,0.025,1.674,0.237c0.55,0.263,0.949,0.937,0.949,1.712c0,0.774-0.4,1.449-0.949,1.712
						c-0.437,0.213-0.774,0.237-1.674,0.237L142.638,25.988L142.638,25.988z"/>
					<path clip-path="url(#SVGID_194_)" fill="#FBBA00" d="M158.408,25.988c-0.649,0-1.461,0-2.074-0.613
						c-0.613-0.611-0.613-1.424-0.613-2.074V10.883c0-0.65,0-1.461,0.613-2.074c0.612-0.612,1.425-0.612,2.074-0.612h7.445
						c0.9,0,1.237,0.025,1.674,0.237c0.55,0.263,0.949,0.937,0.949,1.712s-0.4,1.45-0.949,1.712
						c-0.437,0.212-0.775,0.237-1.674,0.237h-5.733v2.974h4.608c0.899,0,1.237,0.025,1.674,0.237
						c0.55,0.262,0.949,0.937,0.949,1.712s-0.4,1.45-0.949,1.712c-0.438,0.212-0.775,0.237-1.674,0.237h-4.608v3.124h5.733
						c0.9,0,1.237,0.025,1.674,0.237c0.55,0.263,0.949,0.937,0.949,1.712c0,0.774-0.4,1.449-0.949,1.712
						c-0.437,0.213-0.775,0.237-1.674,0.237L158.408,25.988L158.408,25.988z"/>
					<path clip-path="url(#SVGID_194_)" fill="#FBBA00" d="M77.713,34.117c1.274-1.274,2.786-1.949,4.91-1.949
						c2.174,0,3.386,0.362,4.485,1.349c1.349,1.212,1.687,2.524,1.687,3.298c0,0.775-0.213,1.262-0.613,1.662
						c-0.4,0.4-0.937,0.612-1.512,0.612c-0.487,0-0.875-0.125-1.174-0.337c-0.475-0.325-0.787-0.8-1.162-1.462
						c-0.499-0.887-1.024-1.224-1.811-1.224c-0.75,0-1.25,0.35-1.574,0.774c-0.512,0.674-0.675,1.45-0.675,4.373
						c0,2.924,0.162,3.699,0.675,4.373c0.325,0.425,0.824,0.775,1.574,0.775c0.787,0,1.312-0.338,1.811-1.224
						c0.375-0.662,0.687-1.137,1.162-1.462c0.3-0.213,0.687-0.338,1.174-0.338c0.575,0,1.112,0.213,1.512,0.613
						c0.4,0.4,0.613,0.886,0.613,1.661c0,0.774-0.338,2.086-1.687,3.298c-1.099,0.987-2.311,1.349-4.485,1.349
						c-2.124,0-3.636-0.675-4.91-1.949c-1.812-1.812-1.837-4.098-1.837-7.097C75.877,38.216,75.902,35.929,77.713,34.117"/>
					<path clip-path="url(#SVGID_194_)" fill="#FBBA00" d="M101.006,35.167c0-1,0.012-1.349,0.275-1.874
						c0.312-0.625,1.049-1.074,1.924-1.074s1.612,0.45,1.924,1.074c0.262,0.525,0.275,0.875,0.275,1.874v8.695
						c0,3.898-3.099,6.397-6.796,6.397c-3.699,0-6.747-2.499-6.747-6.397v-8.695c0-1,0.012-1.349,0.275-1.874
						c0.312-0.625,1.049-1.074,1.924-1.074c0.874,0,1.611,0.45,1.924,1.074c0.262,0.525,0.275,0.875,0.275,1.874v8.595
						c0,1.649,0.9,2.599,2.349,2.599s2.399-0.95,2.399-2.599v-8.595H101.006z"/>
					<path clip-path="url(#SVGID_194_)" fill="#FBBA00" d="M60.578,46.53h-2.14c-0.601,0-1.087-0.487-1.087-1.087
						c0-0.6,0.486-1.087,1.087-1.087h2.14c0.229,0,0.337-0.13,0.337-0.162V13.235c0-0.205-0.102-0.328-0.143-0.343l-7.527-0.005
						c-0.6,0-1.087-0.488-1.086-1.088c0-0.6,0.487-1.087,1.087-1.087l0,0l7.535,0.006c1.272,0,2.308,1.129,2.308,2.516v30.959
						C63.089,45.482,61.963,46.53,60.578,46.53"/>
					<path clip-path="url(#SVGID_194_)" fill="#FBBA00" d="M38.363,15.864h-1.86c-0.601,0-1.087-0.487-1.087-1.087
						c0-0.601,0.487-1.087,1.087-1.087h1.86c0.601,0,1.087,0.486,1.087,1.087C39.451,15.377,38.964,15.864,38.363,15.864"/>
					<path clip-path="url(#SVGID_194_)" fill="#2E2D2C" d="M55.206,46.53h-1.344c-0.601,0-1.087-0.487-1.087-1.087
						c0-0.6,0.486-1.087,1.087-1.087h1.344c0.601,0,1.087,0.487,1.087,1.087C56.293,46.043,55.807,46.53,55.206,46.53"/>
					<path clip-path="url(#SVGID_194_)" fill="#2E2D2C" d="M64.656,48.01c-0.005,1.241-1.244,2.25-2.631,2.25H62.02l-11.493,0.001
						c0.181-0.194,0.295-0.453,0.295-0.739V9.719c0-0.601-0.487-1.087-1.087-1.087c-0.601,0-1.087,0.487-1.087,1.087v39.803
						c0,0.287,0.113,0.545,0.294,0.74l-5.851,0.001c-0.136,0-0.277,0.003-0.422,0.007c-1.357,0.035-2.53,0.062-3.407-3.111
						l-5.567-31.297c0.588-0.015,1.06-0.494,1.06-1.084c0-0.601-0.487-1.088-1.088-1.088H31.35c-0.174,0-0.271-0.087-0.281-0.097
						l-0.003-0.589c0.013-0.03,0.11-0.116,0.285-0.116h13.087c0.601,0,1.087-0.487,1.087-1.088c0-0.6-0.487-1.087-1.087-1.087H32.88
						c-0.013-0.117-0.021-0.235-0.021-0.356c0-1.232,0.702-2.313,1.502-2.313L62.15,8.052c0.714,0.001,1.397,0.278,1.875,0.758
						c0.408,0.41,0.633,0.936,0.631,1.482V48.01z M56.721,5.498h4.517c0.234,0,0.352,0.172,0.412,0.379l-5.397-0.01
						C56.351,5.499,56.573,5.498,56.721,5.498 M65.567,7.275c-0.594-0.597-1.355-1.018-2.181-1.234
						c-0.105-1.349-0.941-2.235-2.149-2.235H56.72c-0.928,0-1.995,0.552-2.178,2.057l-3.929-0.007L34.361,5.868
						c-2.027,0-3.675,2.013-3.675,4.488c0,0.148,0.007,0.294,0.018,0.439c-1.04,0.264-1.807,1.143-1.807,2.188v0.609
						c0,1.252,1.102,2.272,2.456,2.272h0.137l5.643,31.724l0.021,0.095c1.158,4.249,3.275,4.764,5.24,4.764
						c0.111,0,0.222-0.001,0.332-0.004c0.126-0.003,0.249-0.006,0.367-0.006l18.927-0.003h0.009c2.581,0,4.796-1.98,4.804-4.418
						V10.298C66.834,9.171,66.385,8.098,65.567,7.275"/>
					<path clip-path="url(#SVGID_194_)" fill="#86BC25" d="M168.476,38.441c0-3.45-2.822-6.272-6.272-6.272h-31.748
						c-3.45,0-6.273,2.823-6.273,6.272l0.006,7.135c0,1.554-1.259,3.916-3.022,4.684c2.293,0,4.442-0.368,5.771-1.088
						c1.005,0.685,2.216,1.088,3.518,1.088h31.748c3.45,0,6.272-2.822,6.272-6.272V38.441z"/>
					<polygon clip-path="url(#SVGID_194_)" fill="#FFFFFF" points="131.378,37.833 128.159,37.833 128.159,36.307 136.4,36.307 
						136.4,37.833 133.182,37.833 133.182,46.019 131.378,46.019 					"/>
					<path clip-path="url(#SVGID_194_)" fill="#FFFFFF" d="M136.917,45.631c-0.601-0.324-1.071-0.775-1.408-1.353
						c-0.338-0.578-0.506-1.232-0.506-1.964c0-0.73,0.169-1.382,0.506-1.956c0.337-0.573,0.807-1.022,1.408-1.346
						s1.276-0.486,2.025-0.486c0.759,0,1.438,0.162,2.04,0.486c0.601,0.324,1.07,0.772,1.408,1.346s0.507,1.226,0.507,1.956
						c0,0.731-0.169,1.385-0.507,1.964c-0.338,0.578-0.807,1.029-1.408,1.353c-0.602,0.324-1.282,0.485-2.04,0.485
						C138.193,46.116,137.518,45.954,136.917,45.631 M140.525,43.993c0.416-0.425,0.624-0.985,0.624-1.679s-0.208-1.253-0.624-1.679
						c-0.416-0.425-0.944-0.638-1.582-0.638s-1.163,0.213-1.574,0.638c-0.412,0.426-0.618,0.985-0.618,1.679
						s0.206,1.254,0.618,1.679c0.412,0.426,0.936,0.638,1.574,0.638S140.109,44.419,140.525,43.993"/>
					<path clip-path="url(#SVGID_194_)" fill="#FFFFFF" d="M156.11,45.681c-0.601-0.324-1.071-0.775-1.408-1.353
						c-0.338-0.578-0.507-1.232-0.507-1.963c0-0.73,0.169-1.382,0.507-1.957c0.337-0.573,0.807-1.022,1.408-1.345
						c0.601-0.324,1.276-0.486,2.025-0.486c0.759,0,1.438,0.162,2.04,0.486c0.601,0.323,1.07,0.772,1.408,1.345
						c0.338,0.574,0.507,1.226,0.507,1.957s-0.169,1.385-0.507,1.963c-0.338,0.578-0.807,1.03-1.408,1.353
						c-0.602,0.323-1.282,0.485-2.04,0.485C157.386,46.166,156.71,46.005,156.11,45.681 M159.717,44.044
						c0.416-0.425,0.624-0.985,0.624-1.679s-0.208-1.254-0.624-1.679s-0.943-0.638-1.582-0.638c-0.638,0-1.163,0.213-1.575,0.638
						s-0.618,0.985-0.618,1.679s0.206,1.254,0.618,1.679s0.937,0.638,1.575,0.638C158.774,44.682,159.301,44.469,159.717,44.044"/>
					<path clip-path="url(#SVGID_194_)" fill="#FFFFFF" d="M162.669,45.854c-0.212-0.208-0.319-0.465-0.319-0.77
						s0.107-0.56,0.319-0.763c0.213-0.203,0.481-0.305,0.806-0.305c0.314,0,0.576,0.102,0.784,0.305s0.312,0.458,0.312,0.763
						s-0.104,0.562-0.312,0.77s-0.47,0.312-0.784,0.312C163.15,46.167,162.882,46.062,162.669,45.854 M162.447,36.219h2.054
						l-0.347,6.421h-1.374L162.447,36.219z"/>
					<path clip-path="url(#SVGID_194_)" fill="#FFFFFF" d="M150.074,41.102v1.537h1.707v1.488c-0.573,0.333-1.239,0.499-1.998,0.499
						c-0.675,0-1.279-0.148-1.81-0.444c-0.532-0.296-0.949-0.703-1.249-1.221c-0.301-0.518-0.451-1.101-0.451-1.748
						c0-0.666,0.15-1.258,0.451-1.776c0.3-0.518,0.716-0.92,1.249-1.207c0.531-0.287,1.14-0.43,1.825-0.43
						c1.045,0,1.937,0.37,2.677,1.11l1.138-1.11c-0.453-0.518-1.013-0.911-1.679-1.18s-1.406-0.402-2.22-0.402
						c-0.999,0-1.899,0.215-2.699,0.645s-1.427,1.025-1.88,1.783s-0.68,1.614-0.68,2.567s0.226,1.809,0.68,2.567
						c0.453,0.759,1.078,1.353,1.873,1.783c0.796,0.43,1.688,0.645,2.678,0.645c0.703,0,1.387-0.107,2.053-0.319
						c0.666-0.213,1.249-0.518,1.748-0.916v-2.164v-1.707h-1.707C151.78,41.102,150.074,41.102,150.074,41.102z"/>
				</g>
			</g>
		</g>
	</g>
</g>
</svg>
